<?xml version="1.0" encoding="UTF-8"?>
<svg xmlns="http://www.w3.org/2000/svg" viewBox="0 0 605.11 132.75">
  <defs>
    <style>
      .cls-1 {
        stroke-width: 0px;
      }
    </style>
  </defs>
  <path class="cls-1" d="M118.48,22.78l.28.28.28-.28,1.2-1.2c7.08-7.08,12.8-12.21,17.16-15.4,4.26-3.19,7.52-5.25,9.77-6.19-1.17,1.41-3.38,4.62-6.61,9.63-.61.98-1.5,2.6-2.67,4.85-.61,1.12-1.59,3.12-2.95,5.98-1.36,2.95-3.05,6.84-5.06,11.67-.47,1.27-1.04,2.71-1.72,4.32-.68,1.62-1.07,2.52-1.16,2.71-.33.84-.65,1.59-.95,2.25-.31.66-.5,1.1-.6,1.34l-.28.28.42-.14c1.97-1.45,3.76-2.78,5.38-3.97s3.13-2.31,4.54-3.34l8.93-6.75c3.19-2.39,5.72-4.36,7.59-5.91,6.75-5.39,13.19-10.83,19.34-16.31,3.38-2.91,5.53-4.97,6.47-6.19h1.62c-1.59,1.78-3.73,4.57-6.4,8.37-.09.14-.27.39-.53.74-.26.35-.5.68-.74.98-.24.31-.54.69-.91,1.16-.75.94-1.92,2.46-3.52,4.57-.8,1.08-1.49,2-2.07,2.78-.59.77-1.51,2-2.78,3.69-.28.42-.86,1.2-1.72,2.32-.87,1.12-1.65,2.13-2.36,3.02l-8.79,11.53-8.93,11.67c-1.97,2.67-4.62,6.19-7.95,10.55l-6.47,8.79c-5.02,6.84-7.52,11.06-7.52,12.66,0,1.22.54,1.83,1.62,1.83,1.59,0,4.43-1.9,8.51-5.7,4.03-3.75,8.48-8.55,13.36-14.41l1.05.84c-11.49,13.74-19.17,20.6-23.06,20.6-2.11,0-3.16-1.1-3.16-3.3,0-2.06,1.2-5.23,3.59-9.49,2.3-3.94,4.64-7.55,7.03-10.83,4.73-6.66,8.3-11.37,10.69-14.13l9.49-11.39,8.93-10.76,9.49-11.25c2.95-3.56,5.16-6.35,6.61-8.37-.8.89-2.46,2.44-4.99,4.64-.14.09-.69.54-1.65,1.34-.96.8-2.78,2.32-5.45,4.57-1.83,1.5-2.94,2.42-3.34,2.74-.4.33-.86.7-1.37,1.12-.75.56-1.34,1.01-1.76,1.34l-9.49,7.31c-7.59,5.91-13.15,10.12-16.66,12.66l-3.8,2.6-.42.28-.14.42c-2.72,5.67-5.58,10.78-8.58,15.33-2.91,4.41-6.23,8.77-9.98,13.08-2.53,2.91-4.78,5.2-6.75,6.89-2.16,1.83-4.03,3.19-5.62,4.08-1.78.94-3.33,1.41-4.64,1.41-1.12,0-1.99-.37-2.6-1.12-.66-.8-.98-1.76-.98-2.88,0-1.97,1.22-4.59,3.66-7.88,2.39-3.23,5.79-6.87,10.2-10.9,3.98-3.7,8.88-7.69,14.7-11.95l5.13-3.59c.09-.09.26-.22.49-.39.23-.16.52-.36.84-.6l.56-1.2c3.47-7.55,6.3-13.48,8.51-17.79,3-6.14,5.98-11.58,8.93-16.31,3.09-5.11,4.8-7.9,5.13-8.37l-1.27,1.05c-4.92,3.61-9.87,7.69-14.84,12.23l-1.23,1.23-1.37,1.37-1.58,1.58-1.72,1.72c-.14.09-.33.26-.56.49-.09.09-.18.19-.25.28-.07.09-.18.21-.32.35,1.5,1.88,2.25,4.03,2.25,6.47,0,2.63-1.03,5.18-3.09,7.66-2.06,2.49-4.9,4.57-8.51,6.26-3.61,1.64-7.71,2.72-12.3,3.23l-3.87,4.43-3.87,4.36c-3.61,4.08-6.92,7.71-9.91,10.9-2.44,2.58-4.64,4.76-6.61,6.54-2.34,2.11-4.48,3.94-6.4,5.48-4.78,3.7-9.35,6.8-13.71,9.28-4.59,2.53-8.79,4.41-12.59,5.62-3.98,1.27-7.78,1.9-11.39,1.9-4.83,0-8.63-1.52-11.39-4.57-2.77-3.05-4.15-7.24-4.15-12.59,0-3,.37-6.07,1.12-9.21-4.55-.98-8.2-2.83-10.97-5.55-2.86-2.72-4.29-5.77-4.29-9.14,0-2.86,1.01-5.51,3.02-7.94,2.06-2.48,4.94-4.57,8.65-6.26,5.77-2.62,12.63-3.94,20.6-3.94h2.53c.28,0,.61.01.98.04.37.02.68.06.91.11,3-2.91,6.7-5.98,11.11-9.21,4.03-2.86,8.04-5.34,12.02-7.45,4.03-2.06,7.92-3.66,11.67-4.78,3.94-1.22,7.31-1.83,10.12-1.83,5.58,0,9.14,2.06,10.69,6.19,4.17-1.36,8.25-2.04,12.23-2.04,5.67,0,10.31,1.59,13.92,4.78ZM34.8,38.88l.49-.28c-.19-.05-.46-.08-.81-.11-.35-.02-.67-.04-.95-.04h-2.04c-5.77,0-10.9.7-15.4,2.11-4.55,1.45-8.11,3.45-10.69,5.98-2.58,2.58-3.87,5.44-3.87,8.58s1.24,5.74,3.73,8.09c2.48,2.44,5.95,4.17,10.41,5.2.89-3,2.34-6.35,4.36-10.05,1.87-3.47,4.17-7.01,6.89-10.62,2.48-3.28,5.11-6.23,7.88-8.86ZM92.32,51.12l3.16-3.3h-.49c-.66.09-1.31.14-1.97.14-3.89,0-8.32-.47-13.29-1.41l-.28.28c-2.63,2.63-5.31,5.04-8.05,7.24-2.74,2.2-5.53,4.18-8.37,5.94-2.84,1.76-5.85,3.39-9.04,4.89-9.14,4.17-18.4,6.26-27.77,6.26-3.33,0-6.31-.23-8.93-.7-1.08,4.08-1.62,7.24-1.62,9.49,0,4.36,1.31,7.92,3.94,10.69,2.62,2.77,5.98,4.15,10.05,4.15,3.7,0,7.8-.84,12.3-2.53,4.31-1.55,8.83-3.89,13.57-7.03,4.78-3.23,10.12-7.59,16.03-13.08,1.69-1.59,4.46-4.3,8.33-8.12,3.87-3.82,7-6.97,9.39-9.46l3.02-3.44ZM39.16,38.88h-.42l-.28.28c-3.75,3.84-6.66,7.08-8.72,9.7-1.83,2.39-3.96,5.48-6.4,9.28-2.72,4.31-4.55,7.88-5.48,10.69,2.3.47,5.09.7,8.37.7,4.45,0,8.88-.49,13.29-1.48,4.36-.98,8.76-2.44,13.22-4.36,4.17-1.83,8.27-4.05,12.3-6.68,3.7-2.39,7.36-5.32,10.97-8.79l1.76-1.69s.11-.12.18-.21c.07-.09.15-.19.25-.28h-.42c-.61-.14-1.2-.28-1.76-.42.05,0-.08-.02-.39-.07-.31-.05-.69-.12-1.16-.21l-9.07-1.83c-1.97-.52-4.74-1.15-8.3-1.9-3.38-.66-5.91-1.15-7.59-1.48-3.66-.66-7.1-1.08-10.34-1.27ZM40.57,36.98l-.42.49h.42c2.67.33,6.51.89,11.53,1.69,4.5.8,9.12,1.76,13.85,2.88l8.93,1.9,4.01.84.42.14.28-.42c3.7-4.08,6.54-8.02,8.51-11.81,2.01-3.84,3.02-7.15,3.02-9.91,0-.33-.05-.68-.14-1.05-3.47,1.03-7.15,2.77-11.04,5.2-3.75,2.44-6.8,5.04-9.14,7.8l-1.12-1.05c1.73-1.92,3.61-3.68,5.62-5.27,2.2-1.69,4.59-3.21,7.17-4.57,2.62-1.36,5.37-2.48,8.23-3.38-1.08-3.47-4.15-5.2-9.21-5.2-3.89,0-8.09.87-12.59,2.6-4.69,1.78-9.42,4.27-14.2,7.45-4.92,3.38-9.63,7.27-14.13,11.67ZM117.49,24.33l.28-.28c-3.05-3.05-7.5-4.57-13.36-4.57-3.42,0-7.22.56-11.39,1.69l-.42.14v1.34c0,3.05-.96,6.49-2.88,10.34-2.02,3.89-4.85,7.88-8.51,11.95l-.28.28c.19,0,.66.05,1.41.14,3.8.7,7.27,1.05,10.41,1.05,1.83,0,3.26-.07,4.29-.21.37-.47.66-.8.84-.98l.91-.84c.23-.23.61-.66,1.12-1.27.52-.61.94-1.08,1.27-1.41.66-.75,1.29-1.45,1.9-2.11.61-.66,1.34-1.43,2.18-2.32,1.03-1.12,2.77-2.98,5.2-5.55,1.36-1.5,2.51-2.72,3.45-3.66l3.59-3.73ZM118.2,49.85c-.09.05-.19.12-.28.21s-.19.17-.28.21c-.28.19-1.62,1.2-4.01,3.02l-6.05,4.57c-3.94,3.14-7.62,6.38-11.04,9.7-3.23,3.19-5.77,6.05-7.59,8.58-1.88,2.58-2.81,4.81-2.81,6.68,0,1.59.7,2.39,2.11,2.39,1.83,0,4.05-1.03,6.68-3.09,2.67-2.11,5.41-4.8,8.23-8.09,2.72-3.09,5.48-6.91,8.3-11.46,2.72-4.36,4.97-8.6,6.75-12.73ZM100.05,45.49l-.28.28c6.14-.89,11.16-2.79,15.05-5.7,3.8-2.91,5.7-6.19,5.7-9.84,0-1.83-.63-3.61-1.9-5.34l-.28.49c-1.78,1.78-5.91,6.23-12.38,13.36l-5.91,6.75Z"/>
  <path class="cls-1" d="M176.13,64.97l.98.84c-3.47,4.03-7.03,8.06-10.69,12.09-3.09,3.23-5.48,5.46-7.17,6.68-1.73,1.31-3.28,1.97-4.64,1.97-.94,0-1.73-.33-2.39-.98-.61-.61-.91-1.43-.91-2.46,0-2.16,1.27-5.44,3.8-9.84l-.91.77c-2.58,2.77-5.74,5.74-9.49,8.93-3.61,2.77-6.35,4.15-8.23,4.15-1.17,0-2.11-.42-2.81-1.27-.7-.8-1.05-1.85-1.05-3.16,0-2.34.87-5.08,2.6-8.23,1.69-3.09,4.08-6.26,7.17-9.49,3.94-4.17,8.58-8.06,13.92-11.67,5.16-3.56,8.83-5.34,11.04-5.34,2.01,0,3.02,1.05,3.02,3.16,0,.33-.14.96-.42,1.9l3.16-4.36h3.59c-.38.61-.56.87-.56.77l-2.18,2.81-2.46,3.37-1.76,2.25-12.38,17.16c-2.86,3.89-4.29,6.63-4.29,8.23,0,1.31.56,1.97,1.69,1.97,1.41,0,3.49-1.24,6.26-3.73,4.08-3.8,8.81-8.98,14.2-15.54l.91-.98ZM134.37,83.11c0,1.74.7,2.6,2.11,2.6,2.11,0,5.65-2.18,10.62-6.54,5.06-4.41,9.84-9.49,14.34-15.26,4.97-6.28,7.45-10.5,7.45-12.66,0-1.36-.56-2.04-1.69-2.04-1.69,0-4.48,1.5-8.37,4.5-3.94,2.95-7.92,6.56-11.95,10.83-3.61,3.75-6.54,7.31-8.79,10.69-2.3,3.52-3.54,6.14-3.73,7.88Z"/>
  <path class="cls-1" d="M164.11,86.13l-34.1,46.62h-3.73l72.42-98.65h3.3l-21.73,29.81,1.55-1.55c5.3-5.3,9.38-8.95,12.23-10.97,2.86-2.01,5.37-3.02,7.52-3.02,1.27,0,2.27.38,3.02,1.12.75.75,1.12,1.78,1.12,3.09,0,1.12-.21,2.18-.63,3.16-.38.94-1.34,2.37-2.88,4.29-1.12,1.36-2.98,3.47-5.55,6.33l-4.29,4.78c-2.86,3.23-4.92,5.58-6.19,7.03-1.27,1.59-2.09,2.74-2.46,3.45-.47.8-.7,1.52-.7,2.18,0,.47.21.91.63,1.34.33.47.77.7,1.34.7,2.06,0,5.23-1.85,9.49-5.55,4.45-3.84,8.98-8.62,13.57-14.34l.84-.98,1.05.84-.77.84c-5.39,6.66-10.17,11.72-14.34,15.19-4.12,3.52-7.41,5.27-9.84,5.27-2.58,0-3.87-1.34-3.87-4.01,0-1.83.91-3.96,2.74-6.4,1.59-2.25,5.67-6.94,12.23-14.06,2.95-3.23,5.02-5.62,6.19-7.17.98-1.41,1.48-2.67,1.48-3.8,0-1.22-.73-1.83-2.18-1.83-2.77,0-6.8,2.34-12.09,7.03-3.75,3.33-7.29,6.81-10.62,10.44-3.33,3.63-6.47,7.44-9.42,11.43l-5.34,7.38Z"/>
  <path class="cls-1" d="M253.12,64.97l.98.84c-.42.42-1.71,2.02-3.87,4.78-2.3,2.86-4.36,5.25-6.19,7.17-1.97,2.06-3.98,3.94-6.05,5.62-2.72,2.3-4.83,3.45-6.33,3.45-2.11,0-3.16-1.1-3.16-3.3,0-2.81,1.29-6.28,3.87-10.41l-.7.91c-3.19,3.66-6.59,6.77-10.2,9.35-3.56,2.49-6.4,3.73-8.51,3.73-1.22,0-2.23-.42-3.02-1.27-.8-.8-1.2-1.85-1.2-3.16,0-1.92.82-4.12,2.46-6.61,1.59-2.39,4.48-5.72,8.65-9.98l5.06-5.2c.19-.23.43-.51.74-.84.3-.33,1.25-1.38,2.85-3.16,1.5-1.64,2.53-2.86,3.09-3.66.42-.66.63-1.36.63-2.11,0-1.12-.77-1.69-2.32-1.69-2.77,0-6.75,2.53-11.95,7.59-3.47,3.47-6.54,6.87-9.21,10.2l-.98-.84c3.56-4.45,7.1-8.3,10.62-11.53,4.97-4.59,9-6.89,12.09-6.89,1.27,0,2.3.33,3.09.98.75.61,1.12,1.48,1.12,2.6,0,1.64-1.01,3.75-3.02,6.33-1.27,1.64-4.57,5.25-9.91,10.83-4.41,4.59-7.27,7.73-8.58,9.42-1.59,2.02-2.39,3.73-2.39,5.13,0,1.64.82,2.46,2.46,2.46s4.24-1.24,7.66-3.73c3.33-2.48,6.91-5.86,10.76-10.12,1.17-1.31,2.7-3.07,4.57-5.27,1.87-2.2,4.24-5.06,7.1-8.58,3.05-3.75,5.39-6.87,7.03-9.35h3.73c-.38.38-.61.68-.7.91l-4.57,6.19-5.91,7.59c-4.92,6.28-8.32,10.9-10.2,13.85-1.69,2.72-2.53,4.88-2.53,6.47,0,1.27.45,1.9,1.34,1.9,1.31,0,3.56-1.45,6.75-4.36,2.62-2.34,4.64-4.36,6.05-6.05.89-.89,2.58-2.81,5.06-5.77l3.45-4.01.28-.42Z"/>
  <path class="cls-1" d="M296.3,48.02c-.28.33-.76.97-1.44,1.93-.68.96-1.5,2.12-2.46,3.48-.96,1.36-2.05,2.9-3.27,4.61-1.22,1.71-2.53,3.48-3.94,5.31-4.41,5.67-7.66,10.2-9.77,13.57s-3.16,5.62-3.16,6.75c0,1.03.56,1.55,1.69,1.55.98,0,2.01-.28,3.09-.84,1.08-.56,2.36-1.5,3.83-2.81,1.48-1.31,3.21-3.06,5.2-5.24,1.99-2.18,4.39-4.86,7.21-8.05.52-.56.87-.91,1.05-1.05.19-.14.33-.26.42-.35.09-.09.21-.22.35-.39.14-.16.42-.57.84-1.23l.91.7c-.75.84-1.5,1.75-2.25,2.71-.75.96-1.78,2.17-3.09,3.62-2.53,2.81-4.68,5.1-6.43,6.86s-3.13,3.04-4.11,3.83c-1.41,1.22-2.68,2.14-3.83,2.78-1.15.63-2.21.95-3.2.95-2.2,0-3.3-1.1-3.3-3.3,0-.7.22-1.64.67-2.81.45-1.17,1.01-2.4,1.69-3.69.68-1.29,1.42-2.6,2.21-3.94.8-1.34,1.57-2.54,2.32-3.62.75-1.03,1.66-2.34,2.74-3.94-.98.94-1.85,1.71-2.6,2.32l-.28.49c-.28.33-.87.63-1.76.91-.89.28-1.91.63-3.06,1.05-1.15.42-2.34.96-3.59,1.62-1.24.66-2.38,1.52-3.41,2.6-2.39,2.63-4.36,4.76-5.91,6.4-1.55,1.64-2.81,2.92-3.8,3.83s-1.77,1.54-2.36,1.86c-.59.33-1.16.49-1.72.49-1.69,0-2.98-.41-3.87-1.23-.89-.82-1.49-1.86-1.79-3.13-.3-1.27-.36-2.68-.18-4.25.19-1.57.52-3.1.98-4.61.47-1.5,1.03-2.88,1.69-4.15s1.29-2.25,1.9-2.95c1.59-1.73,2.87-2.73,3.83-2.99.96-.26,1.58-.13,1.86.39.28.52.22,1.25-.18,2.21-.4.96-1.16,1.79-2.29,2.5-1.08.94-2.04,2.03-2.88,3.27-.84,1.24-1.55,2.53-2.11,3.87s-.96,2.63-1.2,3.87c-.23,1.24-.27,2.34-.11,3.3.17.96.54,1.71,1.12,2.25.59.54,1.39.74,2.43.6.7-.14,1.91-.97,3.62-2.5,1.71-1.52,3.69-3.53,5.94-6.01.98-1.12,2.01-2.18,3.09-3.16,1.08-.98,2.3-1.9,3.66-2.74,1.22-.8,2.55-1.52,4.01-2.18-.28-.14-.56-.3-.84-.49-.7-.51-1.17-1.2-1.41-2.04-.38-1.12-.48-2.44-.32-3.94.16-1.5.56-3.01,1.2-4.54.63-1.52,1.49-3.01,2.57-4.46,1.08-1.45,2.34-2.73,3.8-3.83,1.45-1.1,3.08-1.96,4.89-2.57,1.8-.61,3.76-.82,5.87-.63.66.05,1.22.32,1.69.81.47.49.7,1.28.7,2.36,0,.09-.09.47-.28,1.12-.19.66-.45,1.48-.77,2.46l-.07.07c1.41-2.01,2.74-3.94,4.01-5.77l3.94.14ZM281.18,62.93c.47-.51.95-1.08,1.44-1.69.49-.61.97-1.31,1.44-2.11l2.74-4.57c.61-1.45,1.04-2.67,1.3-3.66.26-.98.32-1.73.18-2.25-.24-.7-.7-1.05-1.41-1.05-1.08,0-2.24.34-3.48,1.02-1.24.68-2.59,1.47-4.04,2.36-1.64,1.5-3.05,3.08-4.22,4.75-1.17,1.67-2.11,3.25-2.81,4.75-.7,1.5-1.2,2.86-1.48,4.08-.28,1.22-.33,2.11-.14,2.67.09.38.33.75.7,1.12.33.28.68.47,1.05.56.98-.42,2.08-.8,3.3-1.12,1.45-1.03,3.26-2.65,5.41-4.85Z"/>
  <path class="cls-1" d="M338.55,66.09l-2.18,2.6c-.14,4.74-.87,9.24-2.18,13.5-1.31,4.36-3.07,8.13-5.27,11.32-2.11,3.05-4.62,5.48-7.52,7.31-2.77,1.73-5.74,2.6-8.93,2.6-2.67,0-4.95-.8-6.82-2.39-1.88-1.55-2.81-3.49-2.81-5.84,0-.38.09-1.15.28-2.32l1.27.14c-.19,1.17-.28,1.9-.28,2.18,0,1.87.82,3.49,2.46,4.85,1.64,1.36,3.61,2.04,5.91,2.04,2.81,0,5.51-.84,8.09-2.53,2.44-1.55,4.64-3.82,6.61-6.82,1.22-1.92,2.27-4.62,3.16-8.09.89-3.42,1.41-6.91,1.55-10.48-4.31,4.97-7.99,8.42-11.04,10.34-3.05,2.02-6.16,3.02-9.35,3.02s-5.93-1.01-7.8-3.02c-1.92-2.01-2.88-4.8-2.88-8.37s.91-7.03,2.74-10.27c1.78-3.23,4.31-5.86,7.59-7.88,4.31-2.76,10.94-5.53,19.9-8.3.52-.14,1-.29,1.44-.46.45-.16.78-.27,1.02-.32,1.17-.37,1.8-.56,1.9-.56,1.64-4.97,4.01-9.07,7.1-12.3,3.05-3.09,6.09-4.64,9.14-4.64,2.01,0,3.02.94,3.02,2.81,0,2.34-1.45,4.78-4.36,7.31-2.86,2.49-6.99,4.9-12.38,7.24-.7,3.38-1.12,8.37-1.27,14.98-.09.94-.14,1.67-.14,2.18v.42l.28-.42c2.91-3.7,6.65-7.97,11.25-12.8,4.31-4.5,8.34-6.75,12.09-6.75s5.48,1.57,5.48,4.71v.98h-1.48v-.98c0-2.3-1.38-3.45-4.15-3.45s-6.02,1.73-9.49,5.2c-.98.75-2.67,2.46-5.06,5.13-2.91,3.33-4.5,5.11-4.78,5.34l-2.11,2.74ZM334.76,49.85c-.56.33-.84.47-.84.42l-2.74.84c-6.09,2.44-9.98,4.13-11.67,5.06-4.92,2.86-8.77,6.26-11.53,10.2-2.86,3.99-4.29,8.06-4.29,12.23,0,2.3.7,4.13,2.11,5.48,1.45,1.36,3.35,2.04,5.7,2.04s4.83-.75,7.59-2.25c2.67-1.45,5.27-3.59,7.8-6.4l4.15-4.64c.09-.09.18-.18.25-.25l.25-.25.35-.35c.09-.09.19-.19.28-.28v-.7l.63-5.2.28-4.78c.52-5.34,1.08-9.07,1.69-11.18ZM338.41,47.11c4.59-2.11,8.18-4.26,10.76-6.47,2.67-2.25,4.01-4.26,4.01-6.05,0-1.17-.61-1.76-1.83-1.76-2.44,0-5.02,1.5-7.73,4.5-2.67,2.95-4.41,6.21-5.2,9.77Z"/>
  <path class="cls-1" d="M397.9,80.37c-1.92.19-3.23.28-3.94.28-5.3,0-9.52-1.29-12.66-3.87-3.19-2.62-4.78-6.09-4.78-10.41,0-3.42,1.1-6.84,3.3-10.27,2.25-3.37,5.37-6.51,9.35-9.42,3.89-2.86,8.86-5.62,14.91-8.3,5.95-2.58,12.56-4.8,19.83-6.68h.42l.28-.49c8.02-8.53,16.38-15.91,25.1-22.15l.42-.28c-2.95-3.09-6.99-4.64-12.09-4.64-4.83,0-9.61,1.29-14.34,3.87-4.83,2.63-8.81,6.07-11.95,10.34-3.19,4.27-5.04,8.67-5.55,13.22h-1.12c.23-3.56,1.31-7.03,3.23-10.41,1.92-3.47,4.5-6.61,7.73-9.42,3.33-2.81,6.89-5.02,10.69-6.61,3.8-1.59,7.57-2.39,11.32-2.39,5.39,0,9.8,1.78,13.22,5.34l.42-.28c7.59-4.92,13.8-7.38,18.63-7.38,2.53,0,4.45.77,5.77,2.32,1.31,1.5,1.97,3.66,1.97,6.47,0,3.56-.77,7.71-2.32,12.45-1.64,4.83-3.89,9.87-6.75,15.12-2.86,5.34-6.52,11.04-10.97,17.09-4.17,5.67-8.77,11.25-13.78,16.73-4.22,4.78-8.79,9.24-13.71,13.36-4.78,4.08-9.14,7.2-13.08,9.35-3.94,2.11-7.2,3.16-9.77,3.16-2.11,0-3.89-.52-5.34-1.55-1.55-1.03-2.7-2.53-3.45-4.5-.8-2.11-1.2-4.5-1.2-7.17,0-1.17.07-2.13.21-2.88ZM398.04,78.75c.56-4.26,1.9-8.88,4.01-13.85,1.97-4.83,4.76-9.98,8.37-15.47,3.66-5.53,7.69-10.78,12.09-15.75l.28-.28-.42.14c-6.47,1.69-12.47,3.73-18,6.12-5.48,2.44-10.2,5.11-14.13,8.02-3.98,2.95-7.03,6-9.14,9.14-2.16,3.14-3.23,6.33-3.23,9.56,0,4.03,1.43,7.13,4.29,9.28,2.91,2.25,6.89,3.38,11.95,3.38,1.73,0,3.05-.09,3.94-.28ZM400.43,79.94c-.47,2.2-.7,4.03-.7,5.48,0,3.09.7,5.48,2.11,7.17,1.31,1.73,3.16,2.6,5.55,2.6,4.55,0,10.5-2.98,17.86-8.93,7.31-5.91,15.28-14.16,23.91-24.75,8.91-11.01,15.73-21.12,20.46-30.3,4.69-9.05,7.03-16.62,7.03-22.71v-.84c-.42,1.88-1.55,3.84-3.38,5.91-1.88,2.06-4.22,3.96-7.03,5.7-2.58,1.59-5.98,3.19-10.2,4.78-.42,5.44-2.09,11.06-4.99,16.88-1.45,2.95-3.21,5.85-5.27,8.68-2.06,2.84-4.41,5.64-7.03,8.4-5.34,5.86-11.37,10.69-18.07,14.48-6.61,3.75-13.36,6.24-20.25,7.45ZM400.92,78.05l-.21.42c6.37-1.22,12.63-3.59,18.77-7.1,3-1.64,5.98-3.6,8.93-5.87,2.95-2.27,5.67-4.65,8.16-7.14,5.16-5.16,9.3-10.64,12.45-16.45,3.14-5.77,4.99-11.53,5.55-17.3l-.42.14c-4.83,1.83-12.98,4.15-24.47,6.96l-1.55.42-.91.98-4.01,5.06c-4.31,5.48-7.78,10.31-10.41,14.48-2.72,4.27-5.11,8.6-7.17,13.01-1.97,4.17-3.54,8.3-4.71,12.38ZM451.27,10.2l-.42.35c-5.2,3.94-11.49,9.73-18.84,17.37-.33.33-.61.61-.84.84l-.63.63-.35.35-.49.49c.47-.09,1.02-.22,1.65-.39.63-.16,1.15-.3,1.55-.42.4-.12.83-.22,1.3-.32l5.55-1.48c2.2-.56,6.96-1.99,14.27-4.29l.56-.28.14-.42v-1.2c0-4.5-1.15-8.25-3.45-11.25ZM452.74,9.07l-.28.28c2.48,3.19,3.73,7.31,3.73,12.38v.91c3.66-1.36,6.96-2.98,9.91-4.85,2.86-1.83,5.2-3.84,7.03-6.05,1.73-2.06,2.6-4.01,2.6-5.84,0-1.27-.52-2.27-1.55-3.02-1.03-.75-2.42-1.12-4.15-1.12-4.31,0-10.08,2.44-17.3,7.31Z"/>
  <path class="cls-1" d="M475.7,66.41c-3.75,3.52-11.11,12.8-14.91,15.61-3.94,2.95-7.13,4.43-9.56,4.43-1.12,0-2.04-.4-2.74-1.2-.75-.75-1.12-1.73-1.12-2.95,0-2.11.77-4.31,2.32-6.61,1.45-2.25,4.24-5.48,8.37-9.7l5.27-5.62c3-3,4.99-5.16,5.98-6.47,1.03-1.36,1.55-2.46,1.55-3.3,0-1.12-.73-1.69-2.18-1.69-1.73,0-4.2,1.12-7.38,3.37-3.33,2.34-6.38,5.25-9.14,8.72l-4.22,4.99c-.14.28-.47.68-.98,1.2l-.98-.91.98-1.12c2.25-2.81,4.59-5.51,7.03-8.09,2.44-2.58,4.45-4.5,6.05-5.77,3.33-2.67,6.35-4.01,9.07-4.01,1.27,0,2.27.33,3.02.98.7.61,1.05,1.52,1.05,2.74,0,1.12-.35,2.37-1.05,3.73-.89,1.55-2.06,3.14-3.52,4.78-.94,1.08-3.7,4.01-8.3,8.79-4.31,4.41-7.17,7.55-8.58,9.42-1.64,2.2-2.46,3.96-2.46,5.27,0,.47.23.91.7,1.34.42.47.96.7,1.62.7,1.69,0,4.59-1.5,8.72-4.5,3.56-2.67,9.39-10.15,13.75-14.55l1.65.42Z"/>
  <path class="cls-1" d="M498.66,72.74c1.73-2.67,3.12-4.76,4.15-6.26h-4.85l-7.52-.07c-6.28,7.5-11.84,13.92-16.66,19.27l-.07.07s-.08.09-.11.14c-.02.05-.06.09-.11.14l-.35.35h-3.3l16.1-19.34c7.41-8.67,11.39-13.41,11.95-14.2.42-.66.63-1.36.63-2.11,0-1.12-.77-1.69-2.32-1.69-2.77,0-6.75,2.53-11.95,7.59-3.47,3.47-6.54,6.87-9.21,10.2l-.98-.84c3.56-4.45,7.1-8.3,10.62-11.53,4.97-4.59,9-6.89,12.09-6.89,1.27,0,2.3.33,3.09.98.75.61,1.12,1.48,1.12,2.6.47,1.12-2.65,5.72-9.35,13.78h5.7l6.4.28.07-.07c1.03-1.5,2.98-4.01,5.84-7.52,3.05-3.75,5.39-6.87,7.03-9.35h3.73c-.38.38-.61.68-.7.91l-4.57,6.19-5.91,7.59c-4.92,6.28-8.32,10.9-10.2,13.85-1.69,2.72-2.53,4.88-2.53,6.47,0,1.27.45,1.9,1.34,1.9,1.31,0,3.56-1.45,6.75-4.36,2.62-2.34,4.64-4.36,6.05-6.05.89-.89,2.58-2.81,5.06-5.77l3.45-4.01.28-.42.98.84c-.42.42-1.71,2.02-3.87,4.78-2.3,2.86-4.36,5.25-6.19,7.17-1.97,2.06-3.98,3.94-6.05,5.62-2.72,2.3-4.83,3.45-6.33,3.45-2.11,0-3.16-1.1-3.16-3.3,0-2.81,1.29-6.28,3.87-10.41Z"/>
  <path class="cls-1" d="M559.76,66.69c-2.53,2.81-8.96,10.83-10.72,12.58s-3.13,3.04-4.11,3.83c-1.41,1.22-2.68,2.14-3.83,2.78-1.15.63-2.21.95-3.2.95-2.2,0-3.3-1.1-3.3-3.3,0-.7.22-1.64.67-2.81.45-1.17,1.01-2.4,1.69-3.69.68-1.29,1.42-2.6,2.21-3.94.8-1.34,1.57-2.54,2.32-3.62.75-1.03,1.66-2.34,2.74-3.94-.98.94-1.85,1.71-2.6,2.32l-.28.49c-.28.33-.87.63-1.76.91-.89.28-1.91.63-3.06,1.05-1.15.42-2.34.96-3.59,1.62-1.24.66-2.38,1.52-3.41,2.6-2.39,2.63-4.36,4.76-5.91,6.4-1.55,1.64-2.81,2.92-3.8,3.83s-1.77,1.54-2.36,1.86c-.59.33-1.16.49-1.72.49-1.69,0-2.98-.41-3.87-1.23-.89-.82-1.49-1.86-1.79-3.13-.3-1.27-.36-2.68-.18-4.25.19-1.57.52-3.1.98-4.61.47-1.5,1.03-2.88,1.69-4.15s1.29-2.25,1.9-2.95c1.59-1.73,2.87-2.73,3.83-2.99.96-.26,1.58-.13,1.86.39.28.52.22,1.25-.18,2.21-.4.96-1.16,1.79-2.29,2.5-1.08.94-2.04,2.03-2.88,3.27-.84,1.24-1.55,2.53-2.11,3.87s-.96,2.63-1.2,3.87c-.23,1.24-.27,2.34-.11,3.3.17.96.54,1.71,1.12,2.25.59.54,1.39.74,2.43.6.7-.14,1.91-.97,3.62-2.5,1.71-1.52,3.69-3.53,5.94-6.01.98-1.12,2.01-2.18,3.09-3.16,1.08-.98,2.3-1.9,3.66-2.74,1.22-.8,2.55-1.52,4.01-2.18-.28-.14-.56-.3-.84-.49-.7-.51-1.17-1.2-1.41-2.04-.38-1.12-.48-2.44-.32-3.94.16-1.5.56-3.01,1.2-4.54.63-1.52,1.49-3.01,2.57-4.46,1.08-1.45,2.34-2.73,3.8-3.83,1.45-1.1,3.08-1.96,4.89-2.57,1.8-.61,3.76-.82,5.87-.63.66.05,1.22.32,1.69.81.47.49.7,1.28.7,2.36,0,.09-.09.47-.28,1.12-.19.66-.45,1.48-.77,2.46l-.07.07c1.41-2.01,2.74-3.94,4.01-5.77l3.94.14c-.28.33-.76.97-1.44,1.93-.68.96-1.5,2.12-2.46,3.48-.96,1.36-2.05,2.9-3.27,4.61-1.22,1.71-2.53,3.48-3.94,5.31-4.41,5.67-7.66,10.2-9.77,13.57s-3.16,5.62-3.16,6.75c0,1.03.56,1.55,1.69,1.55.98,0,2.01-.28,3.09-.84,1.08-.56,2.36-1.5,3.83-2.81,1.48-1.31,3.21-3.06,5.2-5.24,1.99-2.18,5.94-7.43,8.75-10.61M545.14,63.07c.47-.51.95-1.08,1.44-1.69.49-.61.97-1.31,1.44-2.11l2.74-4.57c.61-1.45,1.04-2.67,1.3-3.66.26-.98.32-1.73.18-2.25-.24-.7-.7-1.05-1.41-1.05-1.08,0-2.24.34-3.48,1.02-1.24.68-2.59,1.47-4.04,2.36-1.64,1.5-3.05,3.08-4.22,4.75-1.17,1.67-2.11,3.25-2.81,4.75-.7,1.5-1.2,2.86-1.48,4.08-.28,1.22-.33,2.11-.14,2.67.09.38.33.75.7,1.12.33.28.68.47,1.05.56.98-.42,2.08-.8,3.3-1.12,1.45-1.03,3.26-2.65,5.41-4.85Z"/>
  <path class="cls-1" d="M583.39,72.6c1.73-2.67,3.12-4.76,4.15-6.26h-4.85l-7.52-.07c-6.28,7.5-11.84,13.92-16.66,19.27l-.07.07s-.08.09-.11.14c-.02.05-.06.09-.11.14l-.35.35h-3.3l16.1-19.34c7.41-8.67,11.39-13.41,11.95-14.2.42-.66.63-1.36.63-2.11,0-1.12-.77-1.69-2.32-1.69-2.77,0-6.75,2.53-11.95,7.59-3.47,3.47-6.54,6.87-9.21,10.2l-.98-.84c3.56-4.45,7.1-8.3,10.62-11.53,4.97-4.59,9-6.89,12.09-6.89,1.27,0,2.3.33,3.09.98.75.61,1.12,1.48,1.12,2.6.47,1.12-2.65,5.72-9.35,13.78h5.7l6.4.28.07-.07c1.03-1.5,2.98-4.01,5.84-7.52,3.05-3.75,5.39-6.87,7.03-9.35h3.73c-.38.38-.61.68-.7.91l-4.57,6.19-5.91,7.59c-4.92,6.28-8.32,10.9-10.2,13.85-1.69,2.72-2.53,4.88-2.53,6.47,0,1.27.45,1.9,1.34,1.9,1.31,0,3.56-1.45,6.75-4.36,2.62-2.34,4.64-4.36,6.05-6.05.89-.89,2.58-2.81,5.06-5.77l3.45-4.01.28-.42.98.84c-.42.42-1.71,2.02-3.87,4.78-2.3,2.86-4.36,5.25-6.19,7.17-1.97,2.06-3.98,3.94-6.05,5.62-2.72,2.3-4.83,3.45-6.33,3.45-2.11,0-3.16-1.1-3.16-3.3,0-2.81,1.29-6.28,3.87-10.41Z"/>
</svg>