<?xml version="1.0" encoding="utf-8"?>
<!-- Generator: Adobe Illustrator 28.2.0, SVG Export Plug-In . SVG Version: 6.00 Build 0)  -->
<svg version="1.1" id="Layer_1" xmlns="http://www.w3.org/2000/svg" xmlns:xlink="http://www.w3.org/1999/xlink" x="0px" y="0px"
	 viewBox="0 0 605.1 132.8" style="enable-background:new 0 0 605.1 132.8;" xml:space="preserve">
<g>
	<path d="M112.8,29.7l0.3,0.3l0.3-0.3l1.1-1.1c6.4-6.4,11.6-11,15.5-13.9c3.9-2.9,6.8-4.7,8.8-5.6c-1.1,1.3-3,4.2-6,8.7
		c-0.6,0.9-1.4,2.3-2.4,4.4c-0.6,1-1.4,2.8-2.7,5.4c-1.2,2.7-2.8,6.2-4.6,10.5c-0.4,1.1-0.9,2.4-1.6,3.9c-0.6,1.5-1,2.3-1,2.4
		c-0.3,0.8-0.6,1.4-0.9,2c-0.3,0.6-0.5,1-0.5,1.2l-0.3,0.3l0.4-0.1c1.8-1.3,3.4-2.5,4.9-3.6s2.8-2.1,4.1-3l8.1-6.1
		c2.9-2.2,5.2-3.9,6.9-5.3c6.1-4.9,11.9-9.8,17.5-14.7c3-2.6,5-4.5,5.8-5.6h1.5c-1.4,1.6-3.4,4.1-5.8,7.6c-0.1,0.1-0.2,0.3-0.5,0.7
		c-0.2,0.3-0.5,0.6-0.7,0.9c-0.2,0.3-0.5,0.6-0.8,1c-0.7,0.8-1.7,2.2-3.2,4.1c-0.7,1-1.3,1.8-1.9,2.5c-0.5,0.7-1.4,1.8-2.5,3.3
		c-0.3,0.4-0.8,1.1-1.6,2.1c-0.8,1-1.5,1.9-2.1,2.7l-7.9,10.4l-8.1,10.5c-1.8,2.4-4.2,5.6-7.2,9.5l-5.8,7.9
		c-4.5,6.2-6.8,10-6.8,11.4c0,1.1,0.5,1.7,1.5,1.7c1.4,0,4-1.7,7.7-5.1c3.6-3.4,7.7-7.7,12.1-13l1,0.8
		c-10.4,12.4-17.3,18.6-20.8,18.6c-1.9,0-2.9-1-2.9-3c0-1.9,1.1-4.7,3.2-8.6c2.1-3.6,4.2-6.8,6.3-9.8c4.3-6,7.5-10.3,9.6-12.8
		l8.6-10.3l8.1-9.7l8.6-10.2c2.7-3.2,4.7-5.7,6-7.6c-0.7,0.8-2.2,2.2-4.5,4.2c-0.1,0.1-0.6,0.5-1.5,1.2c-0.9,0.7-2.5,2.1-4.9,4.1
		c-1.7,1.4-2.7,2.2-3,2.5c-0.4,0.3-0.8,0.6-1.2,1c-0.7,0.5-1.2,0.9-1.6,1.2l-8.6,6.6c-6.9,5.3-11.9,9.1-15,11.4l-3.4,2.3l-0.4,0.3
		l-0.1,0.4c-2.5,5.1-5,9.7-7.7,13.8c-2.6,4-5.6,7.9-9,11.8c-2.3,2.6-4.3,4.7-6.1,6.2c-1.9,1.7-3.6,2.9-5.1,3.7
		c-1.6,0.8-3,1.3-4.2,1.3c-1,0-1.8-0.3-2.3-1c-0.6-0.7-0.9-1.6-0.9-2.6c0-1.8,1.1-4.1,3.3-7.1c2.2-2.9,5.2-6.2,9.2-9.8
		c3.6-3.3,8-6.9,13.3-10.8l4.6-3.2c0.1-0.1,0.2-0.2,0.4-0.3c0.2-0.1,0.5-0.3,0.8-0.5l0.5-1.1c3.1-6.8,5.7-12.2,7.7-16.1
		c2.7-5.5,5.4-10.5,8.1-14.7c2.8-4.6,4.3-7.1,4.6-7.6l-1.1,1c-4.4,3.3-8.9,6.9-13.4,11c-0.3,0.3-0.7,0.7-1.1,1.1
		c-0.4,0.4-0.8,0.8-1.2,1.2c-0.5,0.5-0.9,0.9-1.4,1.4c-0.5,0.5-1,1-1.6,1.6c-0.1,0.1-0.3,0.2-0.5,0.4c-0.1,0.1-0.2,0.2-0.2,0.3
		c-0.1,0.1-0.2,0.2-0.3,0.3c1.4,1.7,2,3.6,2,5.8c0,2.4-0.9,4.7-2.8,6.9c-1.9,2.2-4.4,4.1-7.7,5.6c-3.3,1.5-7,2.5-11.1,2.9l-3.5,4
		l-3.5,3.9c-3.3,3.7-6.2,7-9,9.8c-2.2,2.3-4.2,4.3-6,5.9c-2.1,1.9-4,3.6-5.8,5c-4.3,3.3-8.4,6.1-12.4,8.4c-4.1,2.3-7.9,4-11.4,5.1
		c-3.6,1.1-7,1.7-10.3,1.7c-4.4,0-7.8-1.4-10.3-4.1c-2.5-2.8-3.7-6.5-3.7-11.4c0-2.7,0.3-5.5,1-8.3c-4.1-0.9-7.4-2.6-9.9-5
		c-2.6-2.5-3.9-5.2-3.9-8.3c0-2.6,0.9-5,2.7-7.2c1.9-2.2,4.5-4.1,7.8-5.6c5.2-2.4,11.4-3.6,18.6-3.6h2.3c0.3,0,0.5,0,0.9,0
		c0.3,0,0.6,0.1,0.8,0.1c2.7-2.6,6.1-5.4,10-8.3c3.6-2.6,7.3-4.8,10.9-6.7c3.6-1.9,7.2-3.3,10.5-4.3c3.6-1.1,6.6-1.7,9.1-1.7
		c5,0,8.3,1.9,9.6,5.6c3.8-1.2,7.4-1.8,11-1.8C105.4,25.4,109.5,26.8,112.8,29.7z M37.3,44.2l0.4-0.3c-0.2,0-0.4-0.1-0.7-0.1
		c-0.3,0-0.6,0-0.9,0h-1.8c-5.2,0-9.8,0.6-13.9,1.9c-4.1,1.3-7.3,3.1-9.6,5.4c-2.3,2.3-3.5,4.9-3.5,7.7c0,2.8,1.1,5.2,3.4,7.3
		c2.2,2.2,5.4,3.8,9.4,4.7c0.8-2.7,2.1-5.7,3.9-9.1c1.7-3.1,3.8-6.3,6.2-9.6C32.4,49.2,34.8,46.6,37.3,44.2z M89.2,55.3l2.9-3h-0.4
		c-0.6,0.1-1.2,0.1-1.8,0.1c-3.5,0-7.5-0.4-12-1.3l-0.3,0.3c-2.4,2.4-4.8,4.5-7.3,6.5c-2.5,2-5,3.8-7.6,5.4
		c-2.6,1.6-5.3,3.1-8.2,4.4c-8.3,3.8-16.6,5.6-25.1,5.6c-3,0-5.7-0.2-8.1-0.6c-1,3.7-1.5,6.5-1.5,8.6c0,3.9,1.2,7.2,3.6,9.6
		c2.4,2.5,5.4,3.7,9.1,3.7c3.3,0,7-0.8,11.1-2.3c3.9-1.4,8-3.5,12.3-6.3c4.3-2.9,9.1-6.9,14.5-11.8c1.5-1.4,4-3.9,7.5-7.3
		c3.5-3.4,6.3-6.3,8.5-8.5L89.2,55.3z M41.2,44.2h-0.4l-0.3,0.3c-3.4,3.5-6,6.4-7.9,8.8c-1.7,2.2-3.6,5-5.8,8.4
		c-2.5,3.9-4.1,7.1-5,9.6c2.1,0.4,4.6,0.6,7.6,0.6c4,0,8-0.4,12-1.3c3.9-0.9,7.9-2.2,11.9-3.9c3.8-1.7,7.5-3.7,11.1-6
		c3.3-2.2,6.6-4.8,9.9-7.9l1.6-1.5c0,0,0.1-0.1,0.2-0.2c0.1-0.1,0.1-0.2,0.2-0.3H76c-0.6-0.1-1.1-0.3-1.6-0.4c0,0-0.1,0-0.3-0.1
		c-0.3,0-0.6-0.1-1-0.2l-8.2-1.7c-1.8-0.5-4.3-1-7.5-1.7c-3-0.6-5.3-1-6.9-1.3C47.2,44.8,44.1,44.4,41.2,44.2z M42.5,42.5l-0.4,0.4
		h0.4c2.4,0.3,5.9,0.8,10.4,1.5c4.1,0.7,8.2,1.6,12.5,2.6l8.1,1.7l3.6,0.8l0.4,0.1l0.3-0.4c3.3-3.7,5.9-7.2,7.7-10.7
		c1.8-3.5,2.7-6.5,2.7-9c0-0.3,0-0.6-0.1-1c-3.1,0.9-6.5,2.5-10,4.7c-3.4,2.2-6.1,4.5-8.3,7l-1-1c1.6-1.7,3.3-3.3,5.1-4.8
		c2-1.5,4.1-2.9,6.5-4.1c2.4-1.2,4.8-2.2,7.4-3c-1-3.1-3.7-4.7-8.3-4.7c-3.5,0-7.3,0.8-11.4,2.3c-4.2,1.6-8.5,3.9-12.8,6.7
		C50.8,35,46.5,38.5,42.5,42.5z M111.9,31.1l0.3-0.3c-2.8-2.8-6.8-4.1-12.1-4.1c-3.1,0-6.5,0.5-10.3,1.5l-0.4,0.1v1.2
		c0,2.8-0.9,5.9-2.6,9.3c-1.8,3.5-4.4,7.1-7.7,10.8l-0.3,0.3c0.2,0,0.6,0,1.3,0.1c3.4,0.6,6.6,1,9.4,1c1.7,0,2.9-0.1,3.9-0.2
		c0.3-0.4,0.6-0.7,0.8-0.9l0.8-0.8c0.2-0.2,0.5-0.6,1-1.1c0.5-0.5,0.8-1,1.1-1.3c0.6-0.7,1.2-1.3,1.7-1.9c0.5-0.6,1.2-1.3,2-2.1
		c0.9-1,2.5-2.7,4.7-5c1.2-1.4,2.3-2.5,3.1-3.3L111.9,31.1z M112.5,54.1c-0.1,0-0.2,0.1-0.3,0.2c-0.1,0.1-0.2,0.1-0.3,0.2l-0.4,0.3
		l-3.2,2.5l-5.5,4.1c-3.6,2.8-6.9,5.8-10,8.8c-2.9,2.9-5.2,5.5-6.9,7.7c-1.7,2.3-2.5,4.3-2.5,6c0,1.4,0.6,2.2,1.9,2.2
		c1.7,0,3.7-0.9,6-2.8c2.4-1.9,4.9-4.3,7.4-7.3c2.5-2.8,5-6.2,7.5-10.3C108.9,61.7,110.9,57.8,112.5,54.1z M96.2,50.2l-0.3,0.3
		c5.5-0.8,10.1-2.5,13.6-5.1c3.4-2.6,5.1-5.6,5.1-8.9c0-1.7-0.6-3.3-1.7-4.8l-0.3,0.4c-1.6,1.6-5.3,5.6-11.2,12.1L96.2,50.2z"/>
	<path d="M164.9,67.8l0.9,0.8c-3.1,3.6-6.3,7.3-9.6,10.9c-2.8,2.9-5,4.9-6.5,6c-1.6,1.2-3,1.8-4.2,1.8c-0.8,0-1.6-0.3-2.2-0.9
		c-0.6-0.5-0.8-1.3-0.8-2.2c0-1.9,1.1-4.9,3.4-8.9l-0.8,0.7c-2.3,2.5-5.2,5.2-8.6,8.1c-3.3,2.5-5.7,3.7-7.4,3.7
		c-1.1,0-1.9-0.4-2.5-1.1c-0.6-0.7-1-1.7-1-2.9c0-2.1,0.8-4.6,2.3-7.4c1.5-2.8,3.7-5.6,6.5-8.6c3.6-3.8,7.7-7.3,12.6-10.5
		c4.7-3.2,8-4.8,10-4.8c1.8,0,2.7,1,2.7,2.9c0,0.3-0.1,0.9-0.4,1.7l2.9-3.9h3.2c-0.3,0.6-0.5,0.8-0.5,0.7l-2,2.5l-2.2,3l-1.6,2
		l-11.2,15.5c-2.6,3.5-3.9,6-3.9,7.4c0,1.2,0.5,1.8,1.5,1.8c1.3,0,3.2-1.1,5.6-3.4c3.7-3.4,8-8.1,12.8-14L164.9,67.8z M127.1,84.1
		c0,1.6,0.6,2.3,1.9,2.3c1.9,0,5.1-2,9.6-5.9c4.6-4,8.9-8.6,12.9-13.8c4.5-5.7,6.7-9.5,6.7-11.4c0-1.2-0.5-1.8-1.5-1.8
		c-1.5,0-4,1.4-7.6,4.1c-3.6,2.7-7.2,5.9-10.8,9.8c-3.3,3.4-5.9,6.6-7.9,9.6C128.4,80.2,127.3,82.6,127.1,84.1z"/>
	<path d="M194.1,67.8l0.9,0.8c-0.6,0.8-1.1,1.3-1.4,1.7c-3.3,4.2-6.5,6.3-9.5,6.3c-1.1,0-2-0.4-2.6-1.1c-0.7-0.7-1-1.7-1-2.9
		c0-1.8,0.8-4,2.3-6.6c-1.4,1.1-3.1,2.8-5.3,5.1c-2.6,2.8-5.3,6-8.1,9.8l-2.5,3.2c-0.5,0.6-0.9,1.1-1.1,1.4
		c-0.2,0.3-0.4,0.6-0.5,0.8c0,0.1-0.1,0.3-0.3,0.5c-0.1,0.2-0.3,0.5-0.5,0.8H161l0.5-0.6c0-0.1,0.4-0.5,1-1.2c0.2-0.2,0.9-1.2,2.3-3
		l2.7-3.7c2.2-2.9,3.9-5.1,5-6.5c2.4-3,4.5-5.7,6.2-8.2c1.7-2.4,3-4.3,3.7-5.5c0.6-1.1,0.9-2,0.9-2.8c0-1-0.5-1.5-1.5-1.5
		s-2.2,0.5-3.7,1.5c-1.4,1-3.3,2.7-5.5,5c-2.4,2.5-5.1,5.6-8.1,9.3l-0.4,0.4l-0.9-0.8l0.4-0.4c2.5-3.1,4.7-5.7,6.6-7.8
		c1.9-2.1,3.5-3.7,5-5c2.6-2.3,4.9-3.5,6.9-3.5c1.8,0,2.7,1,2.7,2.9c0,0.6-0.1,1.3-0.4,2c-0.2,0.5-0.9,1.9-2.1,4.3
		c-1.5,2.7-2.7,4.6-3.7,5.8c3.5-3,5.8-5,6.9-5.7c0.9-1.5,2.8-3.7,5.5-6.5c3.3-3.3,5.4-5,6.2-5c0.3,0,0.5,0.2,0.5,0.7
		c0,0.9-1.2,2.5-3.5,4.8c-2.2,2.2-4.9,4.5-8.1,6.7c-0.1,0.3-0.2,0.4-0.3,0.5c-0.1,0.1-0.1,0.2-0.2,0.2c-2.6,3.7-3.9,6.6-3.9,8.7
		c0,1.8,0.8,2.7,2.4,2.7c2.4,0,5.3-2,8.8-6l0.6-0.9C193.6,68.3,193.8,68.1,194.1,67.8z"/>
	<path d="M208,67.9l0.8,0.6c-0.6,0.6-1.1,1.3-1.7,2.1c-0.8,1-1.8,2.2-3.1,3.6c-4.6,5-7.7,8.2-9.5,9.6c-2.5,2.2-4.6,3.4-6.3,3.4
		c-2,0-3-1-3-3c0-1.5,0.8-3.7,2.3-6.4c1.3-2.3,2.6-4.4,3.9-6.3c2.4-3.3,5.5-7.6,9.4-12.8c1.6-2,2.9-3.8,3.9-5.2L205,53l3.3-0.1
		l-0.6,0.6c-0.2,0.3-1.9,2.6-5.1,6.9c-1.3,1.7-2,2.7-2.3,3c-0.3,0.4-1,1.3-2.1,2.7c-7.8,10.2-11.7,16.3-11.7,18.3
		c0,0.9,0.5,1.4,1.5,1.4c2.2,0,5.5-2.4,10.2-7.2c1.3-1.3,3.7-4,7.3-8.1c0.7-0.8,1-1.2,1.1-1.2c0.1-0.1,0.3-0.3,0.6-0.8
		C207.6,68.3,207.8,68.1,208,67.9z M218,40c0,0.9-0.4,1.7-1.1,2.5c-0.7,0.8-1.4,1.2-2.1,1.2c-0.9,0-1.3-0.4-1.3-1.2
		c0-0.9,0.4-1.8,1.1-2.6c0.7-0.8,1.4-1.3,2.2-1.3C217.6,38.6,218,39.1,218,40z"/>
	<path d="M238.5,67.8l0.9,0.8c-3.1,3.6-6.3,7.3-9.6,10.9c-2.8,2.9-5,4.9-6.5,6c-1.6,1.2-3,1.8-4.2,1.8c-0.8,0-1.6-0.3-2.2-0.9
		c-0.6-0.5-0.8-1.3-0.8-2.2c0-1.9,1.1-4.9,3.4-8.9l-0.8,0.7c-2.3,2.5-5.2,5.2-8.6,8.1c-3.3,2.5-5.7,3.7-7.4,3.7
		c-1.1,0-1.9-0.4-2.5-1.1c-0.6-0.7-1-1.7-1-2.9c0-2.1,0.8-4.6,2.3-7.4c1.5-2.8,3.7-5.6,6.5-8.6c3.6-3.8,7.7-7.3,12.6-10.5
		c4.7-3.2,8-4.8,10-4.8c1.8,0,2.7,1,2.7,2.9c0,0.3-0.1,0.9-0.4,1.7l2.9-3.9h3.2c-0.3,0.6-0.5,0.8-0.5,0.7l-2,2.5l-2.2,3l-1.6,2
		l-11.2,15.5c-2.6,3.5-3.9,6-3.9,7.4c0,1.2,0.5,1.8,1.5,1.8c1.3,0,3.2-1.1,5.6-3.4c3.7-3.4,8-8.1,12.8-14L238.5,67.8z M200.8,84.1
		c0,1.6,0.6,2.3,1.9,2.3c1.9,0,5.1-2,9.6-5.9c4.6-4,8.9-8.6,12.9-13.8c4.5-5.7,6.7-9.5,6.7-11.4c0-1.2-0.5-1.8-1.5-1.8
		c-1.5,0-4,1.4-7.6,4.1c-3.6,2.7-7.2,5.9-10.8,9.8c-3.3,3.4-5.9,6.6-7.9,9.6C202.1,80.2,201,82.6,200.8,84.1z"/>
	<path d="M290,68.8l-2,2.3c-0.1,4.3-0.8,8.3-2,12.2c-1.2,3.9-2.8,7.3-4.8,10.2c-1.9,2.8-4.2,5-6.8,6.6c-2.5,1.6-5.2,2.3-8.1,2.3
		c-2.4,0-4.5-0.7-6.2-2.2c-1.7-1.4-2.5-3.2-2.5-5.3c0-0.3,0.1-1,0.3-2.1l1.1,0.1c-0.2,1.1-0.3,1.7-0.3,2c0,1.7,0.7,3.2,2.2,4.4
		c1.5,1.2,3.3,1.8,5.3,1.8c2.5,0,5-0.8,7.3-2.3c2.2-1.4,4.2-3.5,6-6.2c1.1-1.7,2.1-4.2,2.9-7.3c0.8-3.1,1.3-6.2,1.4-9.5
		c-3.9,4.5-7.2,7.6-10,9.3c-2.8,1.8-5.6,2.7-8.4,2.7c-3,0-5.4-0.9-7-2.7c-1.7-1.8-2.6-4.3-2.6-7.6c0-3.3,0.8-6.3,2.5-9.3
		c1.6-2.9,3.9-5.3,6.9-7.1c3.9-2.5,9.9-5,18-7.5c0.5-0.1,0.9-0.3,1.3-0.4c0.4-0.1,0.7-0.2,0.9-0.3c1.1-0.3,1.6-0.5,1.7-0.5
		c1.5-4.5,3.6-8.2,6.4-11.1c2.8-2.8,5.5-4.2,8.3-4.2c1.8,0,2.7,0.8,2.7,2.5c0,2.1-1.3,4.3-3.9,6.6c-2.6,2.2-6.3,4.4-11.2,6.5
		c-0.6,3-1,7.6-1.1,13.5c-0.1,0.8-0.1,1.5-0.1,2V69l0.3-0.4c2.6-3.3,6-7.2,10.2-11.6c3.9-4.1,7.5-6.1,10.9-6.1c3.3,0,5,1.4,5,4.3
		v0.9h-1.3v-0.9c0-2.1-1.2-3.1-3.7-3.1c-2.6,0-5.4,1.6-8.6,4.7c-0.9,0.7-2.4,2.2-4.6,4.6c-2.6,3-4.1,4.6-4.3,4.8L290,68.8z
		 M286.5,54.1c-0.5,0.3-0.8,0.4-0.8,0.4l-2.5,0.8c-5.5,2.2-9,3.7-10.5,4.6c-4.4,2.6-7.9,5.6-10.4,9.2c-2.6,3.6-3.9,7.3-3.9,11
		c0,2.1,0.6,3.7,1.9,5c1.3,1.2,3,1.8,5.1,1.8c2.1,0,4.4-0.7,6.9-2c2.4-1.3,4.8-3.2,7-5.8l3.7-4.2c0.1-0.1,0.2-0.2,0.2-0.2
		c0.1-0.1,0.1-0.1,0.2-0.2c0.1-0.1,0.2-0.2,0.3-0.3c0.1-0.1,0.2-0.2,0.3-0.3v-0.6l0.6-4.7l0.3-4.3C285.5,59.4,286,56,286.5,54.1z
		 M289.8,51.6c4.1-1.9,7.4-3.9,9.7-5.8c2.4-2,3.6-3.9,3.6-5.5c0-1.1-0.6-1.6-1.7-1.6c-2.2,0-4.5,1.4-7,4.1
		C292.1,45.5,290.6,48.4,289.8,51.6z"/>
	<path d="M356.2,81.7c-1.7,0.2-2.9,0.3-3.6,0.3c-4.8,0-8.6-1.2-11.4-3.5c-2.9-2.4-4.3-5.5-4.3-9.4c0-3.1,1-6.2,3-9.3
		c2-3,4.8-5.9,8.4-8.5c3.5-2.6,8-5.1,13.5-7.5c5.4-2.3,11.3-4.3,17.9-6h0.4l0.3-0.4c7.2-7.7,14.8-14.4,22.7-20l0.4-0.3
		c-2.7-2.8-6.3-4.2-10.9-4.2c-4.4,0-8.7,1.2-12.9,3.5c-4.4,2.4-8,5.5-10.8,9.3c-2.9,3.9-4.5,7.8-5,11.9h-1c0.2-3.2,1.2-6.3,2.9-9.4
		c1.7-3.1,4.1-6,7-8.5c3-2.5,6.2-4.5,9.6-6c3.4-1.4,6.8-2.2,10.2-2.2c4.9,0,8.8,1.6,11.9,4.8l0.4-0.3c6.9-4.4,12.5-6.7,16.8-6.7
		c2.3,0,4,0.7,5.2,2.1c1.2,1.4,1.8,3.3,1.8,5.8c0,3.2-0.7,7-2.1,11.2c-1.5,4.4-3.5,8.9-6.1,13.6c-2.6,4.8-5.9,10-9.9,15.4
		c-3.8,5.1-7.9,10.2-12.4,15.1c-3.8,4.3-7.9,8.3-12.4,12.1c-4.3,3.7-8.3,6.5-11.8,8.4c-3.6,1.9-6.5,2.9-8.8,2.9
		c-1.9,0-3.5-0.5-4.8-1.4c-1.4-0.9-2.4-2.3-3.1-4.1c-0.7-1.9-1.1-4.1-1.1-6.5C356,83.2,356.1,82.3,356.2,81.7z M356.4,80.2
		c0.5-3.9,1.7-8,3.6-12.5c1.8-4.4,4.3-9,7.6-14c3.3-5,6.9-9.7,10.9-14.2l0.3-0.3l-0.4,0.1c-5.8,1.5-11.3,3.4-16.2,5.5
		c-5,2.2-9.2,4.6-12.8,7.2c-3.6,2.7-6.3,5.4-8.3,8.3c-1.9,2.8-2.9,5.7-2.9,8.6c0,3.6,1.3,6.4,3.9,8.4c2.6,2,6.2,3,10.8,3
		C354.4,80.5,355.6,80.4,356.4,80.2z M358.5,81.3c-0.4,2-0.6,3.6-0.6,5c0,2.8,0.6,5,1.9,6.5c1.2,1.6,2.9,2.3,5,2.3
		c4.1,0,9.5-2.7,16.1-8.1c6.6-5.3,13.8-12.8,21.6-22.3c8-9.9,14.2-19.1,18.5-27.4c4.2-8.2,6.3-15,6.3-20.5V16
		c-0.4,1.7-1.4,3.5-3,5.3c-1.7,1.9-3.8,3.6-6.3,5.1c-2.3,1.4-5.4,2.9-9.2,4.3c-0.4,4.9-1.9,10-4.5,15.2c-1.3,2.7-2.9,5.3-4.8,7.8
		c-1.9,2.6-4,5.1-6.3,7.6c-4.8,5.3-10.3,9.6-16.3,13.1C370.8,77.9,364.7,80.2,358.5,81.3z M359,79.6l-0.2,0.4
		c5.8-1.1,11.4-3.2,16.9-6.4c2.7-1.5,5.4-3.2,8.1-5.3c2.7-2.1,5.1-4.2,7.4-6.4c4.7-4.7,8.4-9.6,11.2-14.9c2.8-5.2,4.5-10.4,5-15.6
		l-0.4,0.1c-4.4,1.7-11.7,3.7-22.1,6.3l-1.4,0.4l-0.8,0.9l-3.6,4.6c-3.9,5-7,9.3-9.4,13.1c-2.5,3.9-4.6,7.8-6.5,11.7
		C361.4,72.2,360,75.9,359,79.6z M404.4,18.3l-0.4,0.3c-4.7,3.6-10.4,8.8-17,15.7c-0.3,0.3-0.6,0.6-0.8,0.8
		c-0.2,0.2-0.4,0.4-0.6,0.6c-0.1,0.1-0.2,0.2-0.3,0.3s-0.3,0.3-0.4,0.4c0.4-0.1,0.9-0.2,1.5-0.3c0.6-0.1,1-0.3,1.4-0.4
		c0.4-0.1,0.8-0.2,1.2-0.3l5-1.3c2-0.5,6.3-1.8,12.9-3.9l0.5-0.3l0.1-0.4v-1.1C407.5,24.4,406.5,21,404.4,18.3z M405.7,17.3
		l-0.3,0.3c2.2,2.9,3.4,6.6,3.4,11.2v0.8c3.3-1.2,6.3-2.7,9-4.4c2.6-1.7,4.7-3.5,6.3-5.5c1.6-1.9,2.3-3.6,2.3-5.3
		c0-1.1-0.5-2.1-1.4-2.7c-0.9-0.7-2.2-1-3.7-1C417.5,10.7,412.3,12.9,405.7,17.3z"/>
	<path d="M416.2,95.3l-0.3,0.1c-2.3,4.3-4.8,8.4-7.7,12.5c-2.5,3.8-5.4,7.3-8.6,10.4c-3.2,3.1-6.3,5.6-9.5,7.5
		c-3.1,1.8-5.7,2.7-7.9,2.7c-1.2,0-2.2-0.3-2.9-1c-0.7-0.7-1-1.6-1-2.9c0-2.2,1.1-4.6,3.4-7.2c1.6-1.7,3.7-3.6,6.3-5.6
		c2.7-2,6.5-4.6,11.5-7.6l6.3-3.9c0.2-0.1,0.5-0.4,1.1-0.7c0.6-0.4,0.9-0.6,1.1-0.7c0.7-0.4,1.4-0.9,2-1.3c1.2-0.8,2.2-1.3,2.9-1.7
		l0.8-0.4c1.7-3.3,3.8-6.7,6.1-10.4c0.9-1.4,1.4-2.2,1.6-2.5c0.8-1.3,1.2-2,1.3-2.2c0.1-0.2,0.5-0.7,1-1.7c0.3-0.4,0.4-0.7,0.5-0.9
		s0.2-0.4,0.3-0.6l0.5-0.8l-0.6,0.6c-4.2,3.9-7.8,6.8-10.8,8.6c-1.9,1.2-3.3,1.8-4.4,1.8c-2.3,0-3.5-1.3-3.5-3.9c0-2,1-4.7,3.1-8.1
		c2.1-3.5,4.5-6.6,7.4-9.4c4-3.9,8.4-7.3,13.3-10c4.9-2.7,8.8-4.1,11.8-4.1c1.4,0,2.4,0.3,3.1,0.8c0.7,0.6,1.1,1.4,1.1,2.5
		c0,1-0.4,2.3-1.1,4c-0.8,1.6-1.8,3.1-3,4.4l-1.1-0.8c2.5-2.8,3.7-5.2,3.7-7.4c0-1.6-0.9-2.3-2.7-2.3c-3.1,0-7,1.6-11.8,4.9
		c-4.8,3.3-9.6,7.7-14.2,12.9c-2.3,2.8-4.1,5.3-5.5,7.6c-1.4,2.5-2.2,4.3-2.2,5.4c0,1.3,0.5,2,1.4,2c1.3,0,3.2-1,5.9-2.9
		c2.6-1.8,5.4-4.2,8.4-7.2l2.9-2.9c0.6-0.6,1.4-1.4,2.3-2.5c0.5-0.6,0.7-0.9,0.7-1l1.1-1.7c1.4-2.4,2.9-4.4,4.6-6.2
		c1.5-1.7,2.7-2.5,3.5-2.5c0.3,0,0.5,0.2,0.5,0.6c0,0.9-1,2.4-2.9,4.6c-2.9,3.3-5.2,5.7-6.7,7.1c-0.6,0.7-0.8,1.1-0.7,1.1l-2,3.4
		l-2.9,5.1l-2.7,4.5c-0.8,1.5-1.8,3.3-2.9,5.3l-1.1,1.8l-0.1,0.4l0.4-0.3c4.4-3,8.6-6.4,12.7-10.2c1.5-1.4,3.6-3.6,6.3-6.5
		s5-5.6,6.9-7.9l0.6-0.8l0.9,0.8l-0.6,0.8c-2.3,2.9-4.7,5.6-7,8.3c-2.2,2.4-4.4,4.8-6.9,7c-2.7,2.5-5.1,4.5-7.1,6
		C420.5,92.5,418.1,94.1,416.2,95.3z M411.6,98.8l0.6-0.9c-0.2,0.1-0.4,0.2-0.6,0.3c-0.2,0.1-0.5,0.3-1,0.5
		c-0.6,0.4-2.1,1.3-4.4,2.7l-6.3,3.9c-6.7,4.1-11.8,7.8-15.2,11c-3.4,3.3-5.1,6-5.1,8.3c0,1.8,0.9,2.7,2.6,2.7c2.2,0,4.7-1,7.6-2.9
		c2.8-1.8,5.8-4.5,9.1-8.2c3-3.4,6.2-7.5,9.4-12.3L411.6,98.8z"/>
	<path d="M484.6,67.8l1,0.8l-1,1c-5.3,6.4-9.8,11.1-13.5,14.1c-3.4,2.8-6.1,4.1-8.2,4.1c-2.3,0-3.5-1.2-3.5-3.6
		c0-2.4,2-5.8,6.1-10.3l9.4-10.2c3.3-3.6,5-6.2,5-7.9c0-0.5-0.2-1-0.6-1.3c-0.5-0.3-1-0.5-1.5-0.5c-2.3,0-6.2,2.5-11.7,7.4
		c-4.2,3.8-7.5,7.2-9.9,10.2c-3,3.7-5.4,6.8-7.2,9.4l-4.3,6l-0.1,0.1c0,0-0.1,0.1-0.1,0.1c0,0-0.1,0.1-0.1,0.1c0,0-0.1,0.1-0.1,0.1
		c0,0-0.1,0.1-0.2,0.2h-3l16.6-23.2c3-4.1,4.6-7,4.6-8.4c0-0.7-0.1-1.2-0.4-1.5c-0.3-0.3-0.7-0.4-1.3-0.4c-0.9,0-2.1,0.5-3.4,1.5
		c-1.4,1.1-3.3,2.9-5.8,5.5c-2.8,3-5.4,6-8.1,9.1l-0.4,0.4l-0.9-0.8l0.4-0.3c1.6-1.9,2.7-3.3,3.5-4.1c4.6-5.1,7.8-8.5,9.7-10
		c1.9-1.7,3.6-2.5,5-2.5c0.8,0,1.6,0.3,2.2,0.9c0.5,0.6,0.8,1.3,0.8,2.2c0,2.4-1.3,5.5-3.8,9.4c2.5-2.7,5.2-5.1,7.9-7.2
		c4.4-3.6,7.8-5.3,10.2-5.3c1.1,0,1.9,0.3,2.6,1c0.7,0.7,1,1.6,1,2.7c0,2.7-2.3,6.6-7,11.7l-8.4,9.2c-3.2,3.4-4.8,5.9-4.8,7.4
		c0,1.1,0.5,1.7,1.7,1.7c1.1,0,2.6-0.6,4.5-1.8c2-1.3,3.9-2.8,5.8-4.6c3.1-2.9,6.6-6.7,10.5-11.4L484.6,67.8z"/>
	<path d="M493.9,96.1c-1.4,2.7-2.8,5.1-4,7.2c-1.4,2.4-2.7,4.5-4.1,6.4c-1.3,1.9-2.6,3.4-3.8,4.8c-2.3,2.6-4.8,5-7.5,7.2
		c-2.5,2.1-4.9,3.7-7.3,4.9c-2.3,1.2-4.3,1.8-6,1.8c-2.8,0-4.2-1.3-4.2-4c0-1.8,0.7-3.6,2.2-5.4c1.5-1.9,3.8-4.1,6.9-6.6
		c0.9-0.8,2.6-1.9,4.9-3.5c2.3-1.6,5-3.3,7.8-5.1c5.6-3.6,9.8-6.1,12.6-7.7l0.9-0.6l0.5-0.9c0.5-0.8,1.3-2.1,2.3-3.8l3.1-5.3
		l3.9-6.7l-1.1,0.9c-5.5,5.5-9.9,8.2-13.2,8.2c-2.5,0-3.7-1.2-3.7-3.7c0-2.3,1.1-4.9,3.4-7.8c2.1-2.6,5-5.8,8.6-9.4
		c3.6-3.6,6-6.1,7.2-7.6c1.3-1.6,1.9-2.9,1.9-3.8c0-0.9-0.7-1.4-2.1-1.4c-2.1,0-4.6,1.2-7.5,3.6c-2.9,2.4-6.6,6.3-11.1,11.8
		l-0.9,1.1l-0.8-0.8c4.5-5.8,8.5-10,11.9-12.8c3.5-2.8,6.4-4.2,8.7-4.2c1.1,0,2,0.3,2.7,0.8c0.7,0.6,1,1.3,1,2.3
		c0,1.6-0.8,3.4-2.3,5.3c-0.9,1.2-3.1,3.7-6.5,7.3c-1,1.1-1.8,2-2.4,2.6c-0.6,0.7-1,1.1-1.3,1.4c-1.2,1.3-2.1,2.3-2.7,2.9
		c-1.1,1.2-1.8,1.9-2,2.2c-2.6,3-3.9,5.3-3.9,7c0,0.5,0.2,1,0.6,1.4c0.4,0.5,0.8,0.7,1.3,0.7c1.8,0,4.5-1.4,8.1-4.3
		c3.6-2.8,6.9-6.1,10.2-10c1.7-2.9,3.4-5.5,5.1-7.7l2.7-3.8c2.8-3.6,4.6-5.8,5.5-6.8c0.9-1,1.6-1.5,2.1-1.5c0.3,0,0.5,0.1,0.7,0.2
		c0.1,0.2,0.2,0.4,0.2,0.7c0,0.7-1,2.3-2.9,4.8c-1.4,2-4,5.3-8.1,10c-1.1,1.4-2.4,2.9-4,4.4c0,0.1-0.1,0.3-0.2,0.4
		c0,0.1-0.1,0.2-0.2,0.3l-3.6,5.3l-4.3,7.2c-1.8,2.9-2.9,4.7-3.2,5.3c0,0.1-0.2,0.5-0.7,1.2l-0.5,1.3l0.3-0.3c3.9-2.7,7.1-5,9.5-7
		c2.2-1.7,4.4-3.8,6.9-6.4c4-4.2,7.7-8.3,11-12.4l0.8,0.8c-0.4,0.5-0.7,0.8-0.8,1l-4.4,5.3c-2.2,2.7-5.1,5.7-8.6,9
		c-3.6,3.4-6.9,6-9.7,7.9l-5.6,3.9l-0.3,0.3h-0.2C494,96,494,96,493.9,96.1z M490.9,97.9c-0.1,0.1-0.2,0.1-0.3,0.2
		c-0.1,0-0.2,0.1-0.3,0.1c-0.2,0.1-0.3,0.1-0.3,0.2l-3.2,2l-6,3.6c-5.4,3.3-10,6.5-13.9,9.5c-5.5,4.3-8.3,7.9-8.3,10.9
		c0,1.7,0.9,2.6,2.6,2.6c2.2,0,4.8-1.1,7.9-3.3c3.2-2.2,6.3-5.1,9.4-8.6c1.8-1.9,4.7-5.8,8.7-11.4
		C488.2,102.3,489.5,100.3,490.9,97.9z"/>
	<path d="M553.5,67.8l0.9,0.8c-3.1,3.6-6.3,7.3-9.6,10.9c-2.8,2.9-5,4.9-6.5,6c-1.6,1.2-3,1.8-4.2,1.8c-0.8,0-1.6-0.3-2.2-0.9
		c-0.6-0.5-0.8-1.3-0.8-2.2c0-1.9,1.1-4.9,3.4-8.9l-0.8,0.7c-2.3,2.5-5.2,5.2-8.6,8.1c-3.3,2.5-5.7,3.7-7.4,3.7
		c-1.1,0-1.9-0.4-2.5-1.1c-0.6-0.7-1-1.7-1-2.9c0-2.1,0.8-4.6,2.3-7.4c1.5-2.8,3.7-5.6,6.5-8.6c3.6-3.8,7.7-7.3,12.6-10.5
		c4.7-3.2,8-4.8,10-4.8c1.8,0,2.7,1,2.7,2.9c0,0.3-0.1,0.9-0.4,1.7l2.9-3.9h3.2c-0.3,0.6-0.5,0.8-0.5,0.7l-2,2.5l-2.2,3l-1.6,2
		l-11.2,15.5c-2.6,3.5-3.9,6-3.9,7.4c0,1.2,0.5,1.8,1.5,1.8c1.3,0,3.2-1.1,5.6-3.4c3.7-3.4,8-8.1,12.8-14L553.5,67.8z M515.8,84.1
		c0,1.6,0.6,2.3,1.9,2.3c1.9,0,5.1-2,9.6-5.9c4.6-4,8.9-8.6,12.9-13.8c4.5-5.7,6.7-9.5,6.7-11.4c0-1.2-0.5-1.8-1.5-1.8
		c-1.5,0-4,1.4-7.6,4.1c-3.6,2.7-7.2,5.9-10.8,9.8c-3.3,3.4-5.9,6.6-7.9,9.6C517,80.2,515.9,82.6,515.8,84.1z"/>
	<path d="M594.2,67.8l1,0.8l-1,1c-5.3,6.4-9.8,11.1-13.5,14.1c-3.4,2.8-6.1,4.1-8.2,4.1c-2.3,0-3.5-1.2-3.5-3.6
		c0-2.4,2-5.8,6.1-10.3l9.4-10.2c3.3-3.6,5-6.2,5-7.9c0-0.5-0.2-1-0.6-1.3c-0.5-0.3-1-0.5-1.5-0.5c-2.3,0-6.2,2.5-11.7,7.4
		c-4.2,3.8-7.5,7.2-9.9,10.2c-3,3.7-5.4,6.8-7.2,9.4l-4.3,6l-0.1,0.1c0,0-0.1,0.1-0.1,0.1c0,0-0.1,0.1-0.1,0.1c0,0-0.1,0.1-0.1,0.1
		c0,0-0.1,0.1-0.2,0.2h-3l16.6-23.2c3-4.1,4.6-7,4.6-8.4c0-0.7-0.1-1.2-0.4-1.5c-0.3-0.3-0.7-0.4-1.3-0.4c-0.9,0-2.1,0.5-3.4,1.5
		c-1.4,1.1-3.3,2.9-5.8,5.5c-2.8,3-5.4,6-8.1,9.1l-0.4,0.4l-0.9-0.8l0.4-0.3c1.6-1.9,2.7-3.3,3.5-4.1c4.6-5.1,7.8-8.5,9.7-10
		c1.9-1.7,3.6-2.5,5-2.5c0.8,0,1.6,0.3,2.2,0.9c0.5,0.6,0.8,1.3,0.8,2.2c0,2.4-1.3,5.5-3.8,9.4c2.5-2.7,5.2-5.1,7.9-7.2
		c4.4-3.6,7.8-5.3,10.2-5.3c1.1,0,1.9,0.3,2.6,1c0.7,0.7,1,1.6,1,2.7c0,2.7-2.3,6.6-7,11.7l-8.4,9.2c-3.2,3.4-4.8,5.9-4.8,7.4
		c0,1.1,0.5,1.7,1.7,1.7c1.1,0,2.6-0.6,4.5-1.8c2-1.3,3.9-2.8,5.8-4.6c3.1-2.9,6.6-6.7,10.5-11.4L594.2,67.8z"/>
</g>
</svg>
